# xmcd CD database file
#
# Track frame offsets:
#	150
#	72613
#	121343
#	174276
#	239026
#	272139
#	332550
#
# Disc length: 4706 seconds
#
# Revision: 0
# Processed by: cddbd v1.5.1PL0 Copyright (c) Steve Scherf et al.
# Submitted via: CDex 1.50
#
DISCID=67126007
DTITLE=Joshua Redman and Pat Metheny - Live at the Village Vanguard
DYEAR=2004
DGENRE=Jazz
TTITLE0=KC Blues
TTITLE1=Soul Dance
TTITLE2=Wish
TTITLE3=The Good Life
TTITLE4=Dialogue
TTITLE5=Moose The Mooch
TTITLE6=Double Guatemala
EXTD=YEAR: 2004
EXTT0=
EXTT1=
EXTT2=
EXTT3=
EXTT4=
EXTT5=
EXTT6=
PLAYORDER=
